<?xml version="1.0" encoding="utf-8"?>
<!-- Generator: Adobe Illustrator 16.0.0, SVG Export Plug-In . SVG Version: 6.00 Build 0)  -->
<!DOCTYPE svg PUBLIC "-//W3C//DTD SVG 1.1//EN" "http://www.w3.org/Graphics/SVG/1.1/DTD/svg11.dtd">
<svg version="1.1" id="图层_1" xmlns="http://www.w3.org/2000/svg" xmlns:xlink="http://www.w3.org/1999/xlink" x="0px" y="0px"
	 width="200px" height="200px" viewBox="0 0 200 200" enable-background="new 0 0 200 200" xml:space="preserve">
<line fill="none" stroke="#000000" stroke-miterlimit="10" x1="42" y1="87.023" x2="108.977" y2="37.023"/>
<line fill="none" stroke="#000000" stroke-miterlimit="10" x1="108.977" y1="37.023" x2="113.396" y2="122.14"/>
<line fill="none" stroke="#000000" stroke-miterlimit="10" x1="79.209" y1="94.698" x2="108.977" y2="37.023"/>
<line fill="none" stroke="#000000" stroke-miterlimit="10" x1="42" y1="87.023" x2="79.209" y2="94.698"/>
<line fill="none" stroke="#000000" stroke-miterlimit="10" x1="113.396" y1="122.14" x2="79.209" y2="94.698"/>
<line fill="none" stroke="#000000" stroke-miterlimit="10" x1="49.442" y1="84.232" x2="101.535" y2="46.558"/>
<line fill="none" stroke="#000000" stroke-miterlimit="10" x1="101.535" y1="46.558" x2="79.209" y2="90.86"/>
<line fill="none" stroke="#000000" stroke-miterlimit="10" x1="79.209" y1="90.86" x2="49.442" y2="84.232"/>
<line fill="none" stroke="#000000" stroke-miterlimit="10" x1="106.419" y1="48.418" x2="83.396" y2="91.907"/>
<line fill="none" stroke="#000000" stroke-miterlimit="10" x1="83.396" y1="91.907" x2="110.14" y2="114.465"/>
<line fill="none" stroke="#000000" stroke-miterlimit="10" x1="110.14" y1="114.465" x2="106.419" y2="48.418"/>
<g>
	<g>
		<path d="M101,44v1c0,2,3,2,3,0c0,0,0,0,0-1C104,42,101,42,101,44C101,44,101,42,101,44z"/>
	</g>
</g>
<g>
	<g>
		<path d="M105.128,43.302c-0.001-0.103,0-0.206,0.004-0.309c-0.004,0.173-0.102,0.314-0.211,0.439c0.538-0.615,0.606-1.515,0-2.121
			c-0.549-0.549-1.582-0.616-2.121,0c-0.521,0.594-0.67,1.212-0.672,1.991C102.123,45.237,105.123,45.237,105.128,43.302
			L105.128,43.302z"/>
	</g>
</g>
<g>
	<g>
		<path d="M45.356,85.979c1.746,1.565,4.63,1.965,6.894,1.773c1.913-0.162,1.929-3.164,0-3c-1.383,0.117-3.671,0.093-4.772-0.894
			C46.042,82.571,43.913,84.686,45.356,85.979L45.356,85.979z"/>
	</g>
</g>
<g>
	<g>
		<path d="M50.601,88.115c4.689,1.05,9.461,1.341,14.125,2.369c4.742,1.045,9.539,2.557,14.357,3.102c1.92,0.217,1.9-2.785,0-3
			c-4.496-0.509-9.148-1.958-13.56-2.995c-4.66-1.094-9.439-1.319-14.125-2.368C49.514,84.8,48.714,87.692,50.601,88.115
			L50.601,88.115z"/>
	</g>
</g>
<g>
	<g>
		<path d="M81.363,91.567c0.158-0.433-0.121,0.263,0.077-0.204c0.089-0.209,0.178-0.417,0.256-0.63
			c0.28-0.769-0.307-1.642-1.047-1.845c-0.836-0.23-1.566,0.28-1.845,1.047c-0.158,0.433,0.121-0.263-0.077,0.204
			c-0.089,0.209-0.178,0.417-0.256,0.63c-0.28,0.769,0.307,1.642,1.047,1.845C80.354,92.845,81.084,92.335,81.363,91.567
			L81.363,91.567z"/>
	</g>
</g>
<g>
	<g>
		<path d="M51.149,84.472c-0.411-0.129-0.805-0.268-1.186-0.467c-0.211-0.11-0.284-0.166-0.41-0.29
			c0.11,0.102,0.16,0.238,0.148,0.407c0.02,0.23-0.248,0.478-0.003,0.243c0.606-0.584,2.006-0.787,2.81-1.235
			c1.69-0.942,0.177-3.534-1.514-2.591c-1.444,0.805-3.649,1.045-4.225,3.038c-0.623,2.16,1.992,3.288,3.583,3.787
			C52.202,87.946,52.988,85.05,51.149,84.472L51.149,84.472z"/>
	</g>
</g>
<path fill="none" stroke="#000000" stroke-miterlimit="10" d="M53.625,79.875c0.603-1.803,2.737-1.789,3.875-2.75"/>
<path fill="none" stroke="#000000" stroke-miterlimit="10" d="M51.5,80.375c1.444,0.565,5.058-2.303,6.4-3.125
	c2.053-1.257,3.263-3.176,5.344-4.406c1.099-0.649,1.919-1.371,2.851-2.213c1.017-0.918,2.061-1.484,3.311-2.131
	c2.136-1.104,3.759-2.721,5.48-4.253c3.388-3.016,8.402-4.409,11.43-8.06c3.176-3.83,8.016-5.679,11.685-8.812"/>
<path fill="none" stroke="#000000" stroke-miterlimit="10" d="M102.5,42.875c-0.491,0.008-2.382,1.127-2.916,1.598
	c-0.805,0.711-0.964,1.616-1.675,2.405c-1.659,1.842-4.429,2.673-6.41,4.003c-2.049,1.376-4.479,2.629-6.344,4.265
	c-1.877,1.647-3.528,3.566-5.31,5.388c-1.659,1.696-4.159,2.635-6.103,3.997c-2.225,1.557-4.015,3.482-6.403,4.844
	c-1.291,0.736-2.544,1.589-3.868,2.16c-1.148,0.495-2.297,0.829-3.226,1.747c-1.45,1.432-2.121,3.371-3.247,4.969"/>
<path fill="none" stroke="#000000" stroke-miterlimit="10" d="M52,81.5C52,81.5,51.917,81.5,52,81.5"/>
<g>
	<g>
		<path d="M80.814,94.686c4.01,4.094,8.591,7.479,13.241,10.802c5.246,3.748,11.376,6.741,15.149,12.145
			c0.564-0.734,1.129-1.469,1.693-2.203c-4.933-1.672-9.2-7.589-13.267-10.724c-4.623-3.565-8.546-7.853-13.125-11.375
			c-1.533-1.18-3.024,1.429-1.514,2.591c2.657,2.044,4.704,4.753,7.309,6.876c2.71,2.209,5.535,4.25,8.168,6.558
			c3.472,3.043,7.158,7.451,11.631,8.967c1.206,0.409,2.441-1.132,1.693-2.203c-2.985-4.276-7.113-7.127-11.423-9.947
			c-6.157-4.028-12.274-8.338-17.436-13.606C81.58,91.181,79.46,93.303,80.814,94.686L80.814,94.686z"/>
	</g>
</g>
<g>
	<g>
		<path d="M83.75,89.25c1.219-9.626,9.032-17.734,13.045-26.243c1.879-3.984,3.166-8.108,5.328-11.984
			c0.977-1.749,3.518-8.236,5.525-8.826c-0.614-0.615-1.229-1.23-1.845-1.845c-0.612,1.681-2.333,3.161-2.75,4.875
			c-0.677,2.779-1.518,5.17-2.958,7.673c-2.685,4.665-5.016,9.463-7.415,14.283c-4.204,8.45-9.948,16.247-13.127,25.168
			c-0.651,1.827,2.248,2.606,2.893,0.798c3.47-9.737,9.906-18.506,14.471-27.777c2.083-4.231,4.253-8.326,6.605-12.411
			c0.933-1.622,1.522-3.335,1.986-5.14c0.641-2.495,2.32-4.292,3.188-6.672c0.396-1.088-0.81-2.149-1.845-1.845
			c-2.539,0.746-3.695,3.586-4.787,5.764c-2.332,4.655-4.983,8.87-6.793,13.788C91.43,69.293,82.188,77.889,80.75,89.25
			C80.507,91.166,83.51,91.143,83.75,89.25L83.75,89.25z"/>
	</g>
</g>
<g>
	<g>
		<path d="M84,91c0.208-3.135,2.551-5.775,3.92-8.493c1.54-3.058,2.865-6.177,4.625-9.125c-0.932-0.252-1.864-0.504-2.795-0.757
			c0.241,1.997-1.142,3.604-2.311,5.064c0.835,0.486,1.671,0.973,2.507,1.459c1.148-2.763,3.108-5,4.849-7.392
			c1.14-1.567-1.464-3.062-2.591-1.514c-1.921,2.64-3.89,5.073-5.151,8.108c-0.569,1.369,1.592,2.603,2.507,1.459
			c1.656-2.068,3.527-4.387,3.189-7.186c-0.169-1.403-1.966-2.145-2.795-0.757c-2.131,3.57-3.607,7.454-5.664,11.056
			C82.785,85.56,81.206,87.9,81,91C80.872,92.932,83.873,92.92,84,91L84,91z"/>
	</g>
</g>
<g>
	<g>
		<path d="M84,82.75c-0.291,2.742-1.639,5.097-3.295,7.243c-1.182,1.531,1.426,3.022,2.591,1.514
			c2.017-2.613,3.355-5.456,3.705-8.757C87.204,80.827,84.202,80.847,84,82.75L84,82.75z"/>
	</g>
</g>
<g>
	<g>
		<path d="M80.054,92.774c0.934,2.379,3.737,3.607,5.655,5.114c2.597,2.04,6.212,3.926,8.121,6.619
			c1.109,1.564,3.712,0.068,2.591-1.514c-1.604-2.264-3.727-3.569-5.975-5.12c-1.293-0.892-2.458-2.005-3.708-2.96
			c-0.882-0.674-3.379-1.884-3.792-2.937C82.248,90.197,79.346,90.971,80.054,92.774L80.054,92.774z"/>
	</g>
</g>
<g>
	<g>
		<path d="M51.476,82.696c1.108,0.243,1.55-0.118,2.413-0.793c2.366-1.85,4.402-3.609,7.118-4.983
			c2.313-1.169,3.891-3.516,6.141-4.859c2.417-1.443,4.61-3.075,6.816-4.82c5.82-4.605,11.42-9.226,17.831-13.006
			c2.537-1.496,4.246-3.773,6.65-5.382c1.899-1.271,3.846-1.873,5.491-3.542c1.359-1.378-0.762-3.5-2.121-2.121
			c-1.711,1.736-3.918,2.426-5.902,3.754c-2.022,1.353-3.519,3.36-5.633,4.701c-4.99,3.166-9.705,6.392-14.302,10.12
			c-4.465,3.621-9.559,6.529-13.87,10.251c-1.997,1.723-3.865,2.844-6.112,4.177c-0.899,0.534-1.714,1.372-2.493,2.059
			c-0.506,0.446-2.267,1.324-1.228,1.552C50.388,79.39,49.587,82.282,51.476,82.696L51.476,82.696z"/>
	</g>
</g>
<g>
	<g>
		<path d="M97.545,65.118c-1.865-2.913,3.644-7.391,5.25-9.486c-0.914-0.385-1.828-0.771-2.741-1.156
			c-0.597,1.666-1.838,3.006-2.724,4.517c-0.909,1.551-1.763,3.118-2.75,4.625c-1.063,1.624,1.536,3.125,2.591,1.514
			c1.114-1.701,2.077-3.477,3.104-5.229c0.924-1.577,2.047-2.883,2.672-4.629c0.625-1.745-1.798-2.388-2.742-1.156
			c-2.507,3.273-8.201,7.903-5.25,12.514C95.994,68.255,98.591,66.752,97.545,65.118L97.545,65.118z"/>
	</g>
</g>
<g>
	<g>
		<path d="M102.375,51.625c5.725-0.158,5.097-7.487,6.321-11.351c0.586-1.85-2.311-2.635-2.893-0.798
			c-0.652,2.059-0.426,9.066-3.429,9.149C100.444,48.678,100.439,51.678,102.375,51.625L102.375,51.625z"/>
	</g>
</g>
<g>
	<g>
		<path d="M110.625,79.625c-0.078-2.128,0.75-4.196,0.75-6.359c0-3.689-0.277-7.393-0.482-11.077
			c-0.382-6.846-1.643-13.629-2.018-20.439c-0.105-1.924-3.106-1.934-3,0c0.376,6.822,1.623,13.588,2.018,20.439
			c0.183,3.186,0.323,6.374,0.482,9.561c0.137,2.736-0.849,5.211-0.75,7.875C107.696,81.554,110.696,81.561,110.625,79.625
			L110.625,79.625z"/>
	</g>
</g>
<g>
	<g>
		<path d="M109.875,76.25c0.082-3.798,0.359-7.688,0.854-11.456c0.296-2.256,0.641-4.635-0.919-6.479
			c-0.696-0.824-2.318-0.416-2.507,0.662c-0.236,1.348-0.381,2.653-0.429,4.024c1,0,2,0,3,0c0.057-2.583,0.225-5.086-0.179-7.649
			c-0.3-1.907-3.19-1.094-2.893,0.798c0.358,2.278,0.121,4.562,0.071,6.851c-0.042,1.938,2.933,1.927,3,0
			c-0.002-1.085,0.104-2.16,0.321-3.226c-0.836,0.221-1.671,0.441-2.507,0.662c1.001,1.185,0.005,4.534-0.156,5.956
			c-0.366,3.245-0.588,6.594-0.658,9.858C106.833,78.186,109.833,78.182,109.875,76.25L109.875,76.25z"/>
	</g>
</g>
<g>
	<g>
		<path d="M112.071,118.773c1.227-7.083,0.755-14.107,0.354-21.244c-0.193-3.428-0.16-6.854-0.438-10.277
			c-0.218-2.677,0.237-5.277-0.415-7.901c-0.351-1.412-2.57-1.458-2.893,0c-0.747,3.374-0.709,6.708-0.679,10.149
			c0.018,1.934,3.018,1.935,3,0c-0.028-3.174-0.12-6.226,0.571-9.351c-0.964,0-1.929,0-2.893,0c0.672,2.702,0.204,5.83,0.431,8.617
			c0.236,2.911,0.177,5.846,0.315,8.764c0.326,6.865,0.935,13.622-0.246,20.447C108.852,119.868,111.742,120.678,112.071,118.773
			L112.071,118.773z"/>
	</g>
</g>
<g>
	<g>
		<path d="M112.875,119.5c0-1.375,0-2.75,0-4.125c0-1.935-3-1.935-3,0c0,1.375,0,2.75,0,4.125
			C109.875,121.435,112.875,121.435,112.875,119.5L112.875,119.5z"/>
	</g>
</g>
<g>
	<g>
		<path d="M112.92,118.118c-0.496-0.805-1.425-1.359-2.163-1.913c-0.385,0.914-0.771,1.827-1.155,2.741
			c0.022,0.007,0.463,0.164,0.174,0.041c0.169,0.071,0.325,0.166,0.479,0.266c-0.316-0.205,0.263,0.318,0.031,0.014
			c0.052,0.073,0.099,0.149,0.141,0.229c-0.056-0.151-0.055-0.142,0.003,0.028c0.251,0.777,1.031,1.271,1.845,1.048
			c0.763-0.21,1.299-1.066,1.048-1.845c-0.451-1.4-1.546-2.256-2.923-2.673c-0.642-0.194-1.36,0.12-1.693,0.689
			c-0.449,0.767-0.115,1.563,0.538,2.052c0.123,0.093,0.246,0.186,0.369,0.279c0.134,0.103,0.139,0.105,0.015,0.01
			c0.071,0.056,0.143,0.112,0.213,0.169c0.132,0.104,0.261,0.214,0.388,0.324c0.149,0.13,0.379,0.504,0.103,0.055
			c0.428,0.695,1.334,0.959,2.052,0.538C113.074,119.765,113.35,118.814,112.92,118.118L112.92,118.118z"/>
	</g>
</g>
<g>
	<g>
		<path d="M80.132,91.955c-2.673-1.406-5.604-1.347-8.432-2.401C68.765,88.459,65.067,88.329,62,88
			c-3.781-0.405-7.218-1.312-10.851-2.321c-2.063-0.573-4.355-1.359-6.524-1.179c-1.914,0.16-1.929,3.161,0,3
			c1.213-0.101,5.625,1.043,6.976,1.418c2.449,0.681,4.809,1.374,7.345,1.713c3.424,0.459,6.861,0.82,10.28,1.314
			c2.271,0.329,7.405,1.554,9.392,2.599C80.328,95.445,81.845,92.856,80.132,91.955L80.132,91.955z"/>
	</g>
</g>
<path fill="none" stroke="#000000" stroke-miterlimit="10" d="M65.875,91.125c1.35,0.456,2.782,0.883,4.125,1.134
	c1.309,0.245,3.058,0.854,4.375,0.741"/>
<path fill="none" stroke="#000000" stroke-miterlimit="10" d="M100.375,110.75c-0.833-1.211-0.895-1.923-2.376-2.375
	c-1.458-0.444-1.963-0.779-2.874-2.098c-1.297-1.876-2.811-2.746-4.775-3.934c-1.81-1.094-3.796-2.25-5.225-3.691
	c-1.437-1.449-2.635-3.17-4.75-3.653"/>
<path fill="none" stroke="#000000" stroke-miterlimit="10" d="M73.875,92.375c1.005,0.487,1.931,0.93,3,1.25"/>
<path fill="none" stroke="#000000" stroke-miterlimit="10" d="M84.25,97.875c-1.828-1.019-2.896-2.527-4.375-3.875"/>
<path fill="none" stroke="#000000" stroke-miterlimit="10" d="M90.25,102.25c1.431,1.817,3.557,2.857,5.25,4.375"/>
<path fill="none" stroke="#000000" stroke-miterlimit="10" d="M97,108c1.34,0.854,2.029,2.391,3.125,3.5"/>
<path fill="none" stroke="#000000" stroke-miterlimit="10" d="M112.5,121.5c-0.222-0.163-0.388-0.244-0.231-0.706
	c0.142-0.086,0.218,0.004,0.356-0.044"/>
<path fill="none" stroke="#000000" stroke-miterlimit="10" d="M84.5,94c-0.382-0.437-0.611-1-0.875-1.5"/>
<path fill="none" stroke="#000000" stroke-miterlimit="10" d="M80.875,89.5c0.324-0.35,0.629-0.781,1-1.125"/>
<line fill="none" stroke="#000000" stroke-miterlimit="10" x1="112.5" y1="121" x2="112.5" y2="121"/>
<path fill="none" stroke="#000000" stroke-miterlimit="10" d="M113.75,122.625c-0.484-0.455-0.287-1.491-0.75-2.125"/>
<path fill="none" stroke="#000000" stroke-miterlimit="10" d="M50,83.125c-0.014-0.186,0.074-0.312,0.25-0.375"/>
</svg>
